<svg xmlns="http://www.w3.org/2000/svg" width="800" height="500" viewBox="0 0 800 500">
  <rect width="800" height="500" fill="#E8E4DF"/>
  <rect x="60" y="60" width="200" height="380" rx="8" fill="#F7F5F2" stroke="#D1CCC6" stroke-width="1"/>
  <rect x="80" y="90" width="160" height="16" rx="3" fill="#D1CCC6"/>
  <rect x="80" y="120" width="160" height="40" rx="4" fill="#E0DCD7"/>
  <rect x="80" y="172" width="160" height="40" rx="4" fill="#E0DCD7"/>
  <rect x="80" y="224" width="160" height="40" rx="4" fill="#4A6FA5" opacity="0.2"/>
  <rect x="80" y="276" width="160" height="40" rx="4" fill="#E0DCD7"/>
  <rect x="290" y="60" width="450" height="380" rx="8" fill="#F7F5F2" stroke="#D1CCC6" stroke-width="1"/>
  <rect x="320" y="90" width="200" height="20" rx="3" fill="#D1CCC6"/>
  <rect x="320" y="130" width="390" height="12" rx="2" fill="#E0DCD7"/>
  <rect x="320" y="154" width="360" height="12" rx="2" fill="#E0DCD7"/>
  <rect x="350" y="190" width="360" height="80" rx="4" fill="#E8E4DF"/>
  <rect x="370" y="210" width="300" height="12" rx="2" fill="#D1CCC6"/>
  <rect x="370" y="234" width="280" height="12" rx="2" fill="#D1CCC6"/>
  <rect x="320" y="300" width="390" height="12" rx="2" fill="#E0DCD7"/>
  <rect x="320" y="324" width="370" height="12" rx="2" fill="#E0DCD7"/>
  <rect x="320" y="370" width="390" height="40" rx="4" fill="#E8E4DF"/>
</svg>
